<svg xmlns="http://www.w3.org/2000/svg" width="723" height="1040" viewBox="0 0 723 1040">
<defs>
  <clipPath id="int"><path d="M212 890L212 752L158 752L104 752L104 640L104 528L81 528L58 528L58 484L58 441L110 441C172 441 167 443 151 425C59 320 61 176 156 78L166 68L172 73L178 79L187 71C284 -15 436 -14 534 72L541 78L547 72L553 66L565 78C660 176 661 328 566 428C558 436 557 437 557 440L557 444L586 444L616 444L616 480L616 516L623 516L629 516L629 761L628 1006L478 1007C396 1007 329 1008 329 1008C329 1009 329 1013 329 1018L329 1028L270 1028L212 1028L212 890Z"/></clipPath>
  <pattern id="rose" width="90" height="90" patternUnits="userSpaceOnUse">
    <rect width="90" height="90" fill="#F2D8CF"/>
    <ellipse cx="22" cy="18" rx="16" ry="9" fill="#EACBBF" opacity=".65"/>
    <ellipse cx="68" cy="46" rx="20" ry="12" fill="#EACBBF" opacity=".5"/>
    <ellipse cx="30" cy="72" rx="13" ry="8" fill="#ECCFC4" opacity=".6"/>
    <circle cx="52" cy="14" r="2" fill="#E0BAAC" opacity=".5"/>
    <circle cx="12" cy="48" r="1.6" fill="#E0BAAC" opacity=".5"/>
    <circle cx="80" cy="78" r="2.2" fill="#E0BAAC" opacity=".45"/>
  </pattern>
  <pattern id="wood" width="140" height="32" patternUnits="userSpaceOnUse">
    <rect width="140" height="32" fill="#F1DDC2"/>
    <path d="M0,.5H140 M0,16.5H140" stroke="#E0C49E" stroke-width="1"/>
    <path d="M35.5,0V16 M105.5,16V32 M70.5,0V16" stroke="#E0C49E" stroke-width="1"/>
    <path d="M10,8 C30,7 50,9 66,8 M80,24 C100,23 120,25 134,24" stroke="#E8D2B2" stroke-width="1" fill="none"/>
  </pattern>
  <pattern id="tile" width="25" height="25" patternUnits="userSpaceOnUse">
    <rect width="25" height="25" fill="#F1ECE3"/>
    <path d="M24.5,0V25 M0,24.5H25" stroke="#E1D6C6" stroke-width="1"/>
  </pattern>
</defs>
<rect width="723" height="1040" fill="#FBF7F1"/>
<path d="M212 890L212 752L158 752L104 752L104 640L104 528L81 528L58 528L58 484L58 441L110 441C172 441 167 443 151 425C59 320 61 176 156 78L166 68L172 73L178 79L187 71C284 -15 436 -14 534 72L541 78L547 72L553 66L565 78C660 176 661 328 566 428C558 436 557 437 557 440L557 444L586 444L616 444L616 480L616 516L623 516L629 516L629 761L628 1006L478 1007C396 1007 329 1008 329 1008C329 1009 329 1013 329 1018L329 1028L270 1028L212 1028L212 890Z" fill="#F3E6D8"/>
<g clip-path="url(#int)">
  <circle cx="347" cy="296" r="276" fill="url(#rose)"/>
  <rect x="55" y="438" width="612" height="90" fill="url(#rose)"/>
  <rect x="100" y="522" width="567" height="500" fill="url(#wood)"/>
  <rect x="205" y="745" width="130" height="277" fill="url(#tile)"/>
</g>
<path d="M270 1002L270 986L247 986C231 986 225 986 230 985C234 984 252 984 268 985L272 985L272 1001C272 1011 272 1017 271 1017C270 1017 270 1011 270 1002ZM275 1004L276 992L289 992L302 992L303 1004L303 1018L302 1005L302 993L290 993L277 993L277 998C276 1001 276 1006 276 1009C276 1013 276 1016 276 1017C275 1017 275 1012 275 1004ZM226 1009L226 1004L234 1003L241 1003L241 1009L241 1015L233 1015L226 1015L226 1009ZM253 1013C252 1013 252 1011 252 1009C252 1003 253 1003 260 1003L267 1003L267 1009L267 1015L260 1015C255 1015 253 1015 253 1013ZM230 1010C231 1010 231 1010 230 1009C230 1008 229 1007 229 1006C228 1004 228 1006 228 1009C228 1012 228 1013 229 1012C229 1011 230 1010 230 1010ZM235 1013C234 1011 234 1007 235 1005C236 1004 236 1004 233 1004C231 1004 231 1004 232 1005C233 1005 233 1007 233 1010C233 1013 233 1014 234 1014C236 1014 236 1014 235 1013ZM240 1010C240 1007 240 1005 239 1005C238 1005 238 1005 239 1006C239 1007 239 1008 238 1009C237 1010 237 1010 238 1010C239 1010 239 1011 238 1012C238 1013 238 1014 239 1014C240 1014 240 1012 240 1010ZM255 1009C256 1006 255 1004 255 1005C254 1005 254 1007 254 1010C254 1016 255 1015 255 1009ZM261 1013C260 1012 260 1012 259 1013C258 1014 258 1014 260 1014C262 1014 262 1014 261 1013ZM266 1010C266 1007 266 1005 265 1005C264 1005 264 1006 265 1012C265 1016 266 1014 266 1010ZM261 1009C261 1008 261 1008 260 1008C259 1008 259 1008 259 1009C259 1010 259 1010 260 1010C261 1010 261 1010 261 1009ZM261 1004C258 1004 258 1005 258 1006C259 1007 260 1007 261 1006C262 1005 262 1004 261 1004ZM358 1006C358 1005 363 1005 372 1005C380 1005 385 1005 385 1006C385 1007 380 1007 372 1007C363 1007 358 1007 358 1006ZM406 1006C406 1005 410 1005 416 1005C423 1005 427 1005 427 1006C427 1007 423 1007 416 1007C410 1007 406 1007 406 1006ZM453 1006C453 1005 459 1005 469 1005C479 1005 485 1005 485 1006C485 1007 479 1007 469 1007C459 1007 453 1007 453 1006ZM545 1006C545 1005 550 1005 556 1005C564 1005 568 1005 568 1006C568 1007 564 1007 556 1007C550 1007 545 1007 545 1006ZM358 1003C358 1001 360 1001 372 1001C380 1001 385 1001 385 1002C385 1003 380 1003 373 1003C367 1003 360 1003 360 1004C359 1004 358 1004 358 1003ZM406 1002C406 1001 409 1001 416 1001C424 1001 427 1001 427 1002C427 1003 424 1004 417 1004C409 1004 406 1003 406 1002ZM464 1003C447 1003 451 1001 469 1001C481 1001 485 1001 485 1002C485 1004 483 1004 464 1003ZM545 1002C545 1001 548 1001 556 1001C566 1001 568 1001 568 1002C568 1003 566 1004 557 1004C548 1004 545 1003 545 1002ZM226 1000C226 999 226 996 226 993L226 988L234 988L241 988L241 994L241 1001L234 1001C229 1001 227 1001 226 1000ZM253 995C252 988 252 988 260 988L267 988L267 994L267 1001L260 1001L253 1001L253 995ZM229 992C228 990 228 990 228 994C228 998 228 999 229 997C229 996 229 994 229 992ZM234 997C234 995 234 995 236 995C237 995 238 996 238 997C238 998 238 999 239 999C240 999 240 997 240 994C240 992 240 990 239 990C238 990 238 991 238 992C238 993 237 994 236 994C234 994 234 994 234 992C235 991 235 990 234 990C233 990 232 991 233 992C233 992 233 994 232 994C231 995 231 995 232 995C233 995 233 996 233 997C232 998 233 999 234 999C234 999 235 998 234 997ZM258 995C261 995 263 995 261 994C260 993 260 993 261 992C262 990 262 990 260 990C259 990 258 990 259 992C259 994 259 994 257 994C256 994 255 993 255 992C254 991 254 992 254 994C254 999 254 999 255 997C256 996 257 995 258 995ZM266 994C266 990 266 990 265 992C264 994 264 995 264 996C265 996 265 997 265 998C264 999 264 999 265 999C266 999 266 997 266 994ZM358 998C358 997 363 997 372 997C381 997 386 997 386 998C386 999 381 999 372 999C363 999 358 999 358 998ZM406 998C406 997 410 997 416 997C423 997 427 997 427 998C427 999 423 999 416 999C410 999 406 999 406 998ZM453 998C453 997 459 997 469 997C479 997 485 997 485 998C485 999 479 999 469 999C459 999 453 999 453 998ZM545 996C545 989 553 979 562 977C568 976 568 976 568 988L568 999L556 999L545 999L545 996ZM566 988C566 977 566 977 558 980C552 983 547 989 547 995C547 997 548 997 556 997L566 997L566 988ZM354 982L354 967L341 967L328 967L341 966L354 966L354 950L354 934L342 934C334 934 329 934 329 933C329 932 334 932 342 932L354 932L354 913L354 894L342 894C335 894 330 893 329 893C329 892 335 892 342 892L355 892L355 944C355 973 355 996 354 996C354 996 354 989 354 982ZM389 894L389 792L377 792L365 792L365 736L365 680L286 680L208 680L208 676L208 672L184 672L161 672L161 660L161 647L138 647L116 646L138 646L161 646L161 639C162 626 167 623 187 623C201 623 201 623 200 621C198 617 199 612 202 609C210 601 224 610 219 620L217 623L225 623C232 623 233 623 232 621C229 613 233 606 241 606C250 606 255 614 250 621L249 623L257 623C264 623 267 622 264 620C262 619 263 612 266 609C274 601 289 611 282 621L281 623L289 623C297 623 297 623 296 621C294 617 295 612 298 609C306 601 320 610 315 620L313 623L321 623L328 623L327 620C324 613 328 606 336 606C344 606 349 614 345 621C344 623 344 623 352 623C358 623 359 623 358 621C355 613 359 606 368 606C376 606 380 613 377 621C376 623 377 623 384 623C395 623 401 626 406 634L408 638L409 710C409 799 409 797 399 801L396 802L396 832L396 862L400 863C402 864 405 867 406 869L408 872L408 917C408 961 408 962 406 965C403 970 397 973 393 971L390 969L390 983C390 990 389 950 389 894ZM619 969C619 948 620 948 621 969C621 980 621 985 620 985C619 985 619 980 619 969ZM622 969C622 955 622 953 624 953C625 953 625 955 625 969C625 983 625 985 624 985C622 985 622 983 622 969ZM627 969C627 959 627 953 628 953C629 953 629 959 629 969C629 979 629 985 628 985C627 985 627 979 627 969ZM403 967L406 963L407 919C407 865 407 865 395 863L390 863L390 914C390 959 390 966 392 968C394 971 398 971 403 967ZM235 961L246 961L246 912L246 863L235 863L224 862L236 862L248 862L248 912L248 962L236 962L224 962L235 961ZM289 906L290 850L303 849C312 849 317 849 317 850C317 851 312 851 304 851L291 851L291 906L291 961L305 961L318 962L304 962L289 962L289 906ZM230 938C230 935 230 934 228 934C227 934 226 934 226 933C226 932 227 932 228 931C230 931 230 930 230 927L230 924L237 924L244 924L244 933L244 942L237 942L230 942L230 938ZM243 932L243 925L238 925L232 925L232 929C232 932 232 932 234 932C236 931 237 931 237 932C237 933 236 934 234 934C232 934 232 934 232 937C232 940 232 940 238 940L243 940L243 932ZM619 921C619 909 619 902 620 902C621 902 621 909 621 921C621 933 621 940 620 940C619 940 619 933 619 921ZM622 921C622 905 622 902 623 902C625 902 625 905 625 921C625 937 625 940 624 940C622 940 622 937 622 921ZM627 921C627 909 627 902 628 902C629 902 629 909 629 921C629 933 629 940 628 940C627 940 627 933 627 921ZM230 919C230 916 230 915 228 915C226 914 226 912 228 912C229 912 230 910 230 908L230 904L237 904L244 904L244 913L244 922L237 922L230 922L230 919ZM243 914L243 906L238 906C232 906 232 906 232 909C232 912 232 912 235 912C236 912 237 912 237 913C237 914 235 914 234 914C232 914 232 914 232 917L232 921L238 921L243 921L243 914ZM334 919C333 917 332 916 332 915C332 907 342 905 346 911C349 918 340 925 334 919ZM343 918C347 916 345 909 340 909C334 909 332 916 336 918C337 919 339 920 340 920C340 920 342 919 343 918ZM311 891C303 888 295 878 295 870L294 866L306 866C313 866 317 866 317 867C317 868 313 868 306 868C296 868 296 868 296 870C296 878 306 888 313 890C315 890 317 891 317 891C317 892 315 892 311 891ZM319 889C318 887 318 868 319 868C320 868 320 872 320 879C320 889 320 891 319 889ZM326 879C326 873 326 868 326 868C327 869 328 890 327 890C326 890 326 886 326 879ZM394 832C394 803 394 802 392 802C390 802 390 803 390 832C390 861 390 862 392 862C394 862 394 861 394 832ZM318 832C318 823 318 817 319 817C320 817 320 823 320 832C320 842 320 848 319 848C318 848 318 842 318 832ZM325 832C325 823 325 817 326 817C327 817 327 823 327 832C327 842 327 848 326 848C325 848 325 842 325 832ZM253 820L253 806L265 806L277 806L277 820L277 834L265 834L253 834L253 820ZM275 830C276 828 272 827 262 827C256 827 255 828 255 830C255 833 274 833 275 830ZM276 816L276 808L266 807C254 807 254 807 255 817L255 825L266 825L276 825L276 816ZM401 798C407 794 407 797 407 714C406 629 407 634 399 628C393 624 392 624 280 624C178 624 172 625 170 626C165 629 163 634 163 640L163 646L276 646L390 646L390 723C390 784 390 800 391 800C393 801 398 800 401 798ZM287 791C287 782 299 769 310 769L314 768L315 781C315 792 315 794 313 794C312 794 312 793 312 782L312 770L310 770C302 770 292 778 289 788C288 793 287 794 287 791ZM246 789C246 787 245 787 241 787L236 786L236 778L236 768L248 768L259 768L259 777L258 786L254 787C251 787 250 788 250 789C249 792 246 792 246 789ZM389 757L389 724L378 724C372 724 367 724 367 724C367 724 367 739 367 757L367 790L378 790L389 790L389 757ZM247 784C247 783 247 782 248 782C249 782 249 783 249 784C249 785 250 785 253 785L257 785L257 778L257 770L248 770L238 770L238 778L238 785L242 785C246 785 247 785 247 784ZM247 778C247 778 247 777 248 778C249 778 249 779 249 779C249 780 249 780 248 780C247 780 247 779 247 778ZM224 758C224 757 240 757 270 757C299 757 315 757 315 758C315 759 299 759 270 759C240 759 224 759 224 758ZM389 712L389 703L378 703L367 703L367 712L367 722L378 722L389 722L389 712ZM122 716L128 716L128 692L128 667L122 667L116 666L123 666L130 666L130 692L130 717L123 717L116 717L122 716ZM389 692L389 683L378 683L367 682L367 692C366 703 365 702 378 702L388 701L389 692ZM389 664L388 648L378 647L367 647L367 650C367 652 367 653 366 653C365 653 365 652 365 650L365 647L354 647L342 647L342 662L342 676L332 676L321 676L321 662L321 647L266 647L210 647L210 663L210 679L288 679C338 679 365 679 365 678C365 677 365 677 366 677C367 677 367 678 367 679C367 681 368 681 378 681L389 681L389 664ZM220 664L220 652L244 652L268 652L268 664L268 676L244 676L220 676L220 664ZM343 675C343 674 343 669 343 664L344 654L352 654C360 654 361 654 361 655C361 657 360 657 353 657L346 657L346 665L346 674L354 674C364 674 363 676 352 676C346 676 344 676 343 675ZM255 664L255 653L238 653L221 653L221 664L221 675L238 675L255 675L255 664ZM266 664L266 654L262 653L258 653L258 664L258 675L262 675L266 674L266 664ZM341 661L341 648L332 648L323 648L323 662L323 675L332 675L340 674L341 661ZM276 664L276 654L286 654L297 654L297 664L297 674L286 674L276 674L276 664ZM328 673C323 670 323 665 327 661C329 659 330 657 330 655C330 654 330 653 331 653C332 652 334 655 334 657C334 658 335 660 336 661C342 667 336 677 328 673ZM296 664L296 655L286 655L277 655L277 664L277 672L286 672L296 672L296 664ZM336 671C338 669 337 662 335 661C333 660 333 660 333 663C333 664 332 665 332 665C331 665 331 664 331 662C331 660 330 659 328 662C326 663 325 667 327 670C328 672 334 673 336 671ZM208 659L208 647L186 647L163 647L163 659L163 671L186 671L208 671L208 659ZM216 621C222 612 211 603 203 609C200 612 199 618 202 621C204 624 214 624 216 621ZM248 621C251 619 251 613 248 610C241 603 229 611 233 620C235 624 244 625 248 621ZM280 621C283 619 283 613 280 610C273 603 261 611 265 620C267 624 276 625 280 621ZM312 621C318 613 307 603 300 609C296 612 295 616 297 620C300 624 310 625 312 621ZM343 621C347 615 343 607 336 607C329 607 325 615 329 621C330 623 331 623 336 623C341 623 342 623 343 621ZM374 621C378 618 376 610 371 608C363 605 356 613 360 621C361 624 371 624 374 621ZM627 604C627 593 627 587 628 587C629 587 629 593 629 604C629 614 629 620 628 620C627 620 627 614 627 604ZM619 603C619 594 620 590 620 595C620 599 620 607 620 611C620 616 619 612 619 603ZM622 603C622 589 622 587 624 587C625 587 625 589 625 603C625 617 625 619 624 619C622 619 622 617 622 603ZM112 611C110 608 110 547 112 545C114 544 145 543 146 545C150 551 138 570 127 575L122 578L128 581C138 586 145 597 146 607L146 612L130 612C117 612 113 612 112 611ZM104 578C104 560 105 553 105 562C105 571 105 585 105 594C105 603 104 596 104 578ZM145 605C143 592 131 581 118 579C113 579 112 577 117 577C129 577 142 564 145 551L145 547L129 547L112 547L112 578L112 609L129 609L145 609L145 605ZM619 558C619 541 620 543 620 564C620 570 620 575 620 575C619 575 619 567 619 558ZM622 558C622 544 622 542 624 542C625 542 625 544 625 558C625 572 625 575 624 575C622 575 622 572 622 558ZM627 558C627 548 627 542 628 542C629 542 629 548 629 558C629 569 629 575 628 575C627 575 627 569 627 558ZM327 541C327 529 327 526 328 526C330 525 330 527 330 539L330 554L335 552C347 549 357 537 357 526C357 524 357 524 358 527C363 543 371 552 383 553L385 554L385 539C385 528 386 525 387 526C388 526 388 530 388 541L388 555L383 555C373 553 364 546 360 537L358 532L355 537C351 546 342 553 332 555L327 555L327 541ZM136 524C140 524 148 524 152 524C157 524 153 525 144 525C135 525 131 524 136 524ZM203 524C208 524 216 524 220 524C225 524 221 525 212 525C202 525 198 524 203 524ZM270 524C274 524 282 524 286 524C291 524 287 525 278 525C269 525 265 524 270 524ZM433 524C437 524 445 524 449 524C454 524 450 525 441 525C432 525 428 524 433 524ZM505 524C509 524 517 524 521 524C526 524 522 525 513 525C504 525 500 524 505 524ZM574 524C578 524 586 524 590 524C595 524 591 525 582 525C573 525 569 524 574 524ZM128 521C128 520 134 520 144 520C154 520 160 520 160 521C160 522 154 522 144 522C134 522 128 522 128 521ZM195 521C195 520 201 520 212 520C222 520 228 520 228 521C228 522 222 522 212 522C201 522 195 522 195 521ZM262 521C262 520 268 520 278 520C288 520 294 520 294 521C294 522 288 522 278 522C268 522 262 522 262 521ZM425 521C425 520 431 520 441 520C451 520 457 520 457 521C457 522 451 522 441 522C431 522 425 522 425 521ZM497 521C497 520 503 520 513 520C523 520 529 520 529 521C529 522 523 522 513 522C503 522 497 522 497 521ZM566 521C566 520 572 520 582 520C592 520 598 520 598 521C598 522 592 522 582 522C572 522 566 522 566 521ZM136 516C140 516 148 516 152 516C157 516 153 517 144 517C135 517 131 516 136 516ZM203 516C208 516 216 516 220 516C225 516 221 517 212 517C202 517 198 516 203 516ZM270 516C274 516 282 516 286 516C291 516 287 517 278 517C269 517 265 516 270 516ZM343 516C351 516 365 516 372 516C380 516 373 517 358 517C342 517 335 516 343 516ZM433 516C437 516 445 516 449 516C454 516 450 517 441 517C432 517 428 516 433 516ZM505 516C509 516 517 516 521 516C526 516 522 517 513 517C504 517 500 516 505 516ZM574 516C578 516 586 516 590 516C595 516 591 517 582 517C573 517 569 516 574 516ZM408 490C407 488 403 471 404 471C405 470 435 463 436 463C437 464 440 481 440 482C439 482 408 490 408 490ZM292 486C284 484 278 482 277 482C277 481 281 464 282 463C282 463 313 470 314 470C314 471 313 479 311 485C310 490 310 490 292 486ZM310 480C311 476 312 472 311 472C311 472 284 465 283 465C282 466 279 480 280 481C283 481 306 487 307 487C308 487 309 485 310 480ZM424 484C431 482 438 481 438 480C438 480 435 466 435 465C434 465 407 472 406 472C406 473 409 487 410 487C410 487 417 486 424 484ZM298 482C294 479 297 471 302 471C304 471 309 475 309 477C309 482 302 485 298 482ZM411 482C408 479 408 476 412 473C415 470 417 470 420 473C422 476 422 476 422 474C422 472 426 468 428 468C431 468 435 472 435 474C435 477 431 481 428 481C427 481 426 480 424 479C422 477 422 477 422 478C422 483 415 486 411 482ZM306 479C307 478 307 477 305 475C303 472 298 473 298 477C298 482 303 483 306 479ZM418 480C420 478 420 477 418 475C415 472 411 474 411 478C411 482 416 483 418 480ZM285 479C281 476 284 468 289 468C292 468 296 473 295 475C294 480 289 482 285 479ZM292 477C294 475 294 474 293 473C290 469 285 470 285 474C285 479 290 481 292 477ZM431 477C432 477 433 475 433 474C433 474 432 472 431 472C431 471 429 470 428 470C428 470 426 471 426 472C425 472 424 474 424 474C424 475 425 477 426 477C426 478 428 479 428 479C429 479 431 478 431 477ZM198 432C198 431 200 428 204 425L209 420L199 410C188 398 189 398 182 406C179 409 177 411 176 411C175 411 178 407 182 404L189 397L201 408L212 420L205 426C201 430 198 433 198 432ZM514 426L507 419L518 408L530 397L537 403C540 407 543 410 542 410C541 410 538 408 535 405L530 399L528 402L525 405L529 404C535 403 539 410 534 414C529 419 521 413 524 408C526 404 525 405 518 412C509 420 509 419 516 426C519 429 521 432 521 432C521 433 517 430 514 426ZM194 424C191 422 191 418 195 415C198 412 200 412 203 415C208 421 201 429 194 424ZM519 425C512 423 513 413 520 413C526 413 528 420 525 424C522 426 522 426 519 425ZM201 423C203 421 202 417 200 416C198 415 195 416 194 419C193 423 198 426 201 423ZM524 421C525 419 523 415 520 415C518 415 516 417 516 419C516 423 522 425 524 421ZM184 415C179 409 186 401 193 406C196 408 196 412 192 415C189 418 187 418 184 415ZM191 413C194 411 193 408 191 407C186 405 182 411 187 414C189 415 190 415 191 413ZM533 413C536 410 533 405 529 406C526 407 525 412 527 413C528 414 532 414 533 413ZM125 326C125 326 128 324 133 323C138 322 140 321 140 320C139 319 138 313 136 307C134 301 133 295 133 294C132 293 130 294 125 295C120 296 118 296 118 296C119 295 133 291 134 291C134 292 142 322 142 323C140 325 125 328 125 326ZM585 325C582 324 579 323 578 323C578 322 585 293 586 292C587 291 601 294 602 296C602 296 600 296 595 295C591 294 587 293 587 293C587 293 586 299 584 306C582 313 581 319 580 320C580 321 582 322 587 323C591 324 594 326 595 326C595 327 592 327 585 325ZM126 320C123 318 123 314 126 312C129 309 133 309 135 312C140 318 132 325 126 320ZM585 320C582 317 583 313 587 310L590 308L588 306C584 300 592 294 597 299C601 302 598 309 593 309C591 309 591 309 594 311C597 314 597 317 594 320C591 323 588 323 585 320ZM133 318C135 317 135 316 134 314C132 310 126 312 126 316C126 320 131 321 133 318ZM592 318C596 315 591 310 587 313C585 315 585 315 586 317C587 320 590 321 592 318ZM123 307C121 305 121 301 123 299C126 295 133 298 133 303C133 308 126 311 123 307ZM130 306C131 305 131 303 131 301C130 297 124 298 123 302C123 307 127 309 130 306ZM596 306C599 301 594 296 590 300C588 302 588 303 590 305C592 307 594 307 596 306ZM126 205C122 203 119 202 119 201C119 201 121 201 126 202C133 205 132 206 137 190C142 175 142 176 132 173C127 172 124 170 127 170C129 170 142 175 143 176C143 177 135 205 134 206C134 206 130 206 126 205ZM581 191C579 183 577 176 577 176C577 175 590 170 593 170C596 170 593 172 588 173C578 176 578 175 583 190C587 205 586 205 594 202C599 201 601 201 601 201C600 202 590 206 587 206C586 206 584 202 581 191ZM123 198C118 193 125 185 131 190C135 192 135 196 131 199C128 202 126 202 123 198ZM588 199C587 198 586 196 586 194C586 193 587 191 588 190L590 188L588 188C582 188 580 180 585 177C591 172 597 179 593 185C592 187 591 188 592 188C597 188 600 195 597 198C594 202 591 202 588 199ZM130 197C131 197 132 195 132 194C132 194 131 192 130 192C128 189 123 191 123 194C123 196 126 199 128 199C128 199 130 198 130 197ZM596 196C598 193 594 189 591 191C588 192 587 196 590 198C592 199 594 199 596 196ZM127 186C125 184 124 181 127 178C130 174 138 176 138 182C138 185 134 188 132 188C130 188 128 187 127 186ZM135 183C137 179 133 176 130 178C127 180 126 182 129 184C131 187 134 186 135 183ZM591 184C593 182 593 181 591 179C589 176 584 178 584 182C584 186 589 187 591 184ZM190 104C182 96 183 95 191 102L197 108L207 99C220 88 219 90 214 84C212 82 210 79 210 79C211 79 214 82 218 86L221 90L210 100C204 105 198 110 197 110C197 111 194 108 190 104ZM511 101C505 95 499 90 499 90C498 89 508 78 509 79C510 79 508 81 505 84C502 87 501 89 502 90C502 90 507 95 512 100L522 108L528 102C536 94 537 96 529 105L522 111L511 101ZM193 102C189 98 193 90 199 91C201 92 201 92 201 89C201 83 209 81 213 86C216 91 210 97 204 94L201 92L203 95C206 101 198 107 193 102ZM517 102C512 96 519 88 526 93C529 95 529 99 526 102C523 105 520 105 517 102ZM200 100C202 98 202 97 200 95C198 93 194 93 193 97C192 101 197 104 200 100ZM524 101C528 99 525 92 521 93C518 94 517 97 519 100C520 102 521 102 524 101ZM508 93C504 89 506 83 512 83C516 83 518 85 518 89C518 94 511 97 508 93ZM210 91C212 90 212 89 211 87C209 83 203 85 203 89C203 93 208 94 210 91ZM514 92C517 91 517 86 514 85C510 83 506 88 509 92C511 93 512 93 514 92ZM285 49C284 46 284 42 283 41C283 40 283 39 284 39C284 39 286 42 287 46C288 49 289 52 289 52C290 52 316 45 316 45C317 45 316 42 315 38C314 32 314 29 316 32C317 33 319 46 319 46C318 47 289 54 288 54C287 54 286 52 285 49ZM416 50C408 48 401 47 401 46C400 46 404 31 405 31C406 31 406 33 405 39C404 42 403 45 403 45C404 45 430 52 431 52C432 52 432 50 433 47C434 41 436 38 437 39C437 40 436 43 435 47C433 55 434 55 416 50ZM290 47C287 45 287 41 290 38C292 36 295 35 298 38C304 43 297 52 290 47ZM421 47C420 45 419 44 419 43C419 42 418 43 416 44C411 48 405 43 407 37C409 31 417 32 419 38L419 41L422 38C426 34 432 37 432 42C432 48 426 51 421 47ZM297 46C300 42 296 37 292 39C288 41 290 47 294 47C295 47 296 46 297 46ZM428 46C431 44 431 40 428 39C425 37 422 39 422 42C422 46 425 48 428 46ZM305 45C299 43 301 33 307 33C313 33 315 40 312 44C309 46 308 46 305 45ZM310 42C312 40 312 36 308 35C304 34 301 41 305 43C307 44 308 44 310 42ZM417 40C418 36 413 34 410 37C408 39 408 40 410 42C412 44 416 43 417 40Z" fill="#9A9089"/>
<path d="M212 890L212 752L158 752L104 752L104 681L104 610L108 610L112 610L112 628C112 644 112 645 114 646C115 646 115 649 115 694L115 741L168 741C203 741 222 741 223 742C223 743 223 755 223 769L223 795L269 795L316 795L316 769C316 740 316 741 321 741C326 741 326 738 326 780L327 817L322 816L318 816L318 811L318 805L271 805L223 805L223 912L223 1018L271 1018L319 1018L319 956C319 921 318 893 318 892C318 891 319 891 323 891C326 891 328 891 328 891C328 892 328 916 328 945L328 997L341 997C349 997 355 997 356 997C357 997 358 998 358 1002L358 1007L343 1007C335 1007 329 1007 329 1008C329 1008 329 1013 329 1018L329 1028L270 1028L212 1028L212 890ZM385 1004C385 1002 386 1001 386 1000C387 1000 387 999 386 998C386 997 388 996 397 997L406 997L406 1002L406 1007L395 1007L385 1007L385 1004ZM427 1002L427 997L440 997L453 997L453 1002L453 1007L440 1007L427 1007L427 1002ZM485 1002L485 997L515 997L545 997L545 1002L545 1007L515 1007L485 1007L485 1002ZM568 1002L568 997L594 997L619 997L619 991L619 985L624 985L629 985L629 996L628 1006L598 1007L568 1007L568 1002ZM619 946L619 940L624 940L629 940L629 947L629 953L624 953L619 953L619 946ZM619 895L619 888L616 888L613 888L613 876L613 864L616 864L619 864L619 759L619 654L616 654L613 654L613 642L613 629L616 629C619 629 619 629 619 624C619 620 619 619 622 619C624 619 625 619 625 620C625 620 626 621 627 620C629 620 629 620 629 761L629 902L624 902L619 902L619 895ZM318 858L318 849L322 848L327 848L327 858L327 868L322 868L318 868L318 858ZM364 676C361 676 360 654 363 654C363 654 365 654 365 653C367 653 367 654 367 665C367 672 367 677 366 677C366 677 365 677 364 676ZM619 581L619 575L624 575L629 575L629 581L629 587L624 587L619 586L619 581ZM104 537L104 528L81 528L58 528L58 484L58 441L110 441C172 441 167 443 151 425C59 321 61 177 155 79C166 67 166 67 173 74L178 79L187 71C284 -15 436 -14 534 72L541 78L546 73C553 66 553 66 566 79C660 177 660 328 566 428C558 436 557 437 557 440L557 444L586 444L616 444L616 480L616 516L622 516L629 516L629 529L629 542L624 542L619 542L619 534L618 526L613 526C611 525 606 525 604 525L598 525L598 521C598 516 599 516 601 516L604 516L604 487L604 458L572 458L539 458L539 455C539 452 538 450 530 442C525 438 521 433 521 432C521 430 541 410 542 410C543 410 545 411 547 413L550 416L556 409C575 389 592 362 601 337L604 330L599 329C597 328 595 328 595 327C595 327 597 321 599 313C601 306 602 298 602 297C602 295 603 295 608 296C613 297 613 298 615 287C620 260 615 199 609 200C602 202 601 202 601 201C602 200 600 193 598 185C593 169 593 169 597 169C601 168 601 167 594 154C582 128 554 91 548 92C546 92 545 92 545 91C544 90 542 91 540 93C534 98 535 98 523 87C516 81 512 78 511 78C509 79 509 78 509 77C512 72 445 36 437 39C436 39 435 39 435 38C436 36 416 31 408 31C406 30 400 30 396 29C374 26 343 26 323 29C319 30 314 30 312 31C305 31 284 36 285 38C285 38 283 39 282 39C269 39 210 71 211 77C211 79 211 79 209 79C208 78 204 81 197 88C184 98 185 98 180 94C174 89 171 90 162 100C147 116 136 133 126 153C119 167 119 168 123 168C127 169 127 169 122 185C120 193 118 199 119 200C119 202 116 202 111 200C109 200 109 201 107 212C101 241 103 298 109 297C118 295 118 295 118 296C117 297 122 318 124 326C125 327 124 328 121 329L116 330L120 340C130 366 143 386 163 409L169 416L172 414C173 412 175 411 176 411C178 411 198 430 198 432C198 433 194 438 189 442C183 448 180 452 180 454L180 456L125 457L71 457L71 487L71 516L99 516L128 516L128 520L128 524L120 525L112 526L112 536L112 546L108 546L104 546L104 537ZM311 525L294 524L294 520L294 516L311 516L328 516L329 521C329 524 328 526 328 526C328 526 320 525 311 525ZM386 521L386 516L406 516L424 516L425 521L425 525L407 525C397 525 389 525 388 526C387 526 386 525 386 521ZM160 520L160 516L177 516L194 516L194 521L194 525L178 525L160 525L160 520ZM228 521L228 516L245 516L262 516L262 520L262 525L245 525L228 525L228 521ZM457 521L458 516L477 516L496 516L497 521L497 525L477 525L457 525L457 521ZM529 521L530 516L548 516L566 516L566 521L566 525L548 525L529 525L529 521Z" fill="#3A2723"/>
<g font-family="Georgia,'Times New Roman',serif" text-anchor="middle" font-size="15" letter-spacing="5">
  <text x="347" y="182" fill="#D9A292">C&#218;PULA</text>
  <text x="490" y="772" fill="#C6A276">SAL&#195;O</text>
</g>
<g font-family="Georgia,'Times New Roman',serif" text-anchor="middle" font-size="10" letter-spacing="3">
  <text x="253" y="602" fill="#C6A276">BAR</text>
  <text x="272" y="932" fill="#B5AB9F" transform="rotate(90 272 932)">COZINHA</text>
  <text x="268" y="777" fill="#B5AB9F">WC</text>
</g>
<g transform="translate(36,1016)">
  <rect width="50" height="4" fill="#3A2723"/>
  <rect x="50" width="50" height="4" fill="none" stroke="#3A2723" stroke-width="1"/>
  <rect x="100" width="100" height="4" fill="#3A2723"/>
  <g font-family="Helvetica,Arial,sans-serif" font-size="9" fill="#8A7A72">
    <text y="-4">0</text><text x="46" y="-4">1</text><text x="96" y="-4">2</text><text x="190" y="-4">4 m</text>
    <text x="212" y="4">ESC. 1:50</text>
  </g>
</g>
</svg>
